<svg xmlns="http://www.w3.org/2000/svg" viewBox="0 0 512 512">
  <rect width="512" height="512" rx="64" fill="#0f172a"/>
  <g fill="none" stroke="#fff" stroke-width="24" stroke-linecap="round" stroke-linejoin="round">
    <path d="M256 96c-66.3 0-120 53.7-120 120v40h-16c-22.1 0-40 17.9-40 40v160c0 22.1 17.9 40 40 40h272c22.1 0 40-17.9 40-40V296c0-22.1-17.9-40-40-40h-16v-40c0-66.3-53.7-120-120-120z"/>
    <path d="M176 256v-40c0-44.2 35.8-80 80-80s80 35.8 80 80v40"/>
    <circle cx="256" cy="360" r="24" fill="#fff"/>
    <line x1="256" y1="384" x2="256" y2="416"/>
  </g>
</svg>
